<svg width="800" height="800" viewBox="0 0 800 800" fill="none" xmlns="http://www.w3.org/2000/svg">
<g clip-path="url(#clip0_191_84)">
<path d="M240 343.334C240.171 350.669 241.292 357.952 243.333 365L250 381.667C250.603 382.343 251.062 383.135 251.348 383.995C251.635 384.855 251.743 385.764 251.667 386.667C251.667 390 250 391.667 248.333 395L231.667 405H226.667C225.114 405.132 223.552 404.9 222.105 404.321C220.658 403.742 219.367 402.833 218.333 401.667C214.653 398.509 211.794 394.505 210 390C206.852 385.798 204.064 381.338 201.667 376.667C193.045 387.31 182.108 395.845 169.688 401.622C157.269 407.398 143.695 410.264 130 410C121.129 410.316 112.284 408.857 103.984 405.709C95.6843 402.561 88.0968 397.787 81.6667 391.667C75.5954 385.546 70.8378 378.249 67.6854 370.225C64.5329 362.201 63.052 353.617 63.3334 345C63.3171 335.465 65.3989 326.042 69.4314 317.401C73.4638 308.761 79.348 301.113 86.6667 295C103.238 282.005 123.974 275.488 145 276.667H171.667L200 281.667V266.667C200.759 252.912 196.626 239.333 188.333 228.334C176.698 220.044 162.601 215.933 148.333 216.667L121.667 220L95 228.334L86.6667 231.667H83.3334C80 231.667 78.3334 228.333 78.3334 223.333V211.667C77.8215 208.778 78.4165 205.803 80 203.334L86.6667 198.334C96.203 193.744 106.284 190.383 116.667 188.334C129.179 185.039 142.061 183.358 155 183.334C178.43 181.419 201.699 188.579 220 203.334C227.156 211.502 232.61 221.016 236.044 231.319C239.478 241.621 240.823 252.505 240 263.334V343.334ZM141.667 380L166.667 375C175.367 371.607 183.301 366.507 190 360C193.765 354.996 196.589 349.348 198.333 343.334C198.333 338.334 200 331.667 200 323.333V313.333L178.333 308.334H155C141.991 307.347 129.04 310.879 118.333 318.334C114.367 321.862 111.256 326.247 109.235 331.156C107.213 336.064 106.335 341.369 106.667 346.667C106.081 355.768 109.071 364.737 115 371.667C118.634 374.813 122.878 377.176 127.466 378.61C132.054 380.043 136.888 380.517 141.667 380ZM336.667 406.667C335.114 406.799 333.552 406.566 332.105 405.988C330.658 405.409 329.367 404.5 328.333 403.334C326.593 402.216 325.102 400.751 323.955 399.03C322.807 397.309 322.028 395.37 321.667 393.334L265 205C263.881 201.786 263.318 198.404 263.333 195C263.333 194.344 263.463 193.693 263.714 193.087C263.965 192.48 264.334 191.929 264.798 191.465C265.262 191 265.813 190.632 266.42 190.381C267.027 190.13 267.677 190 268.333 190H301.667C304.021 192.943 305.725 196.351 306.667 200L348.333 361.667L386.667 200C386.514 198.194 386.73 196.376 387.303 194.657C387.876 192.937 388.794 191.353 390 190H430L435 200L473.333 363.333L515 200L520 190H551.667C556.667 190 558.333 191.667 558.333 195V200C558.333 201.667 556.667 203.334 556.667 205L496.667 395C496.611 396.7 496.122 398.357 495.247 399.815C494.372 401.273 493.14 402.484 491.667 403.334L483.333 406.667H461.667C459.851 406.952 457.993 406.803 456.246 406.234C454.498 405.665 452.909 404.69 451.61 403.391C450.31 402.091 449.336 400.502 448.766 398.755C448.197 397.007 448.049 395.149 448.333 393.334L410 236.667L371.667 393.334C371.82 395.139 371.603 396.958 371.03 398.677C370.457 400.396 369.539 401.981 368.333 403.334L358.333 406.667H336.667ZM650 413.333C637.609 413.317 625.276 411.635 613.333 408.333L585 398.333C581.623 396.987 578.722 394.666 576.667 391.667C576.667 390 575 386.667 575 385V371.667C575 369.899 575.702 368.203 576.953 366.953C578.203 365.703 579.899 365 581.667 365H585L591.667 368.334L618.333 376.667L648.333 380C660.535 380.399 672.62 377.521 683.333 371.667C687.423 369.306 690.812 365.902 693.154 361.803C695.497 357.703 696.709 353.055 696.667 348.333C696.584 342.144 694.209 336.206 690 331.667C682.889 325.235 674.302 320.656 665 318.334L630 306.667C614.58 303.198 600.61 295.048 590 283.334C582.191 272.723 578.091 259.838 578.333 246.667C577.928 237.32 580.244 228.057 585 220C588.622 211.935 594.386 205.017 601.667 200L628.333 186.667L658.333 183.334H690L705 188.334L715 191.667C718.333 193.334 720 196.667 721.667 198.334C723.25 200.803 723.845 203.778 723.333 206.667V218.334C723.333 223.334 721.667 225 718.333 225C716.781 225.132 715.219 224.9 713.772 224.321C712.325 223.742 711.033 222.833 710 221.667C694.471 216.196 678.131 213.379 661.667 213.334C650.7 212.614 639.746 214.92 630 220C626.23 222.166 623.14 225.342 621.078 229.171C619.017 232.999 618.066 237.327 618.333 241.667C618.503 244.868 619.33 248.001 620.764 250.868C622.198 253.736 624.207 256.277 626.667 258.334C633.928 265.477 643.261 270.143 653.333 271.667L686.667 283.334C701.757 286.448 715.303 294.693 725 306.667C732.683 316.063 736.814 327.864 736.667 340C736.406 349.801 734.137 359.445 730 368.334C725.766 376.955 719.468 384.397 711.667 390C704.341 397.053 695.038 401.704 685 403.334C674.234 409.258 662.27 412.676 650 413.333Z" fill="url(#paint0_linear_191_84)"/>
<path d="M696.667 531.667C616.667 590 500 621.667 400 621.667C265.827 622.749 136.146 573.375 36.6667 483.334C28.3334 476.667 36.6667 466.667 45 473.334C155.653 536.582 280.88 569.899 408.333 570C503.303 568.721 597.175 549.494 685 513.334C698.333 506.667 710 521.667 696.667 531.667ZM730 493.334C720 480 661.667 486.667 636.667 490C611.667 493.334 626.667 483.334 633.333 478.334C680 446.667 755 456.667 763.333 466.667C771.667 476.667 761.667 553.334 718.333 590C711.667 595 705 591.667 708.333 585C711.667 578.334 740 506.667 730 493.334Z" fill="url(#paint1_linear_191_84)"/>
</g>
<defs>
<linearGradient id="paint0_linear_191_84" x1="399.985" y1="183.029" x2="399.985" y2="413.333" gradientUnits="userSpaceOnUse">
<stop stop-color="#825CFF"/>
<stop offset="1" stop-color="#444CF7"/>
</linearGradient>
<linearGradient id="paint1_linear_191_84" x1="399.617" y1="456.869" x2="399.617" y2="621.684" gradientUnits="userSpaceOnUse">
<stop stop-color="#825CFF"/>
<stop offset="1" stop-color="#444CF7"/>
</linearGradient>
<clipPath id="clip0_191_84">
<rect width="800" height="800" fill="white"/>
</clipPath>
</defs>
</svg>
