<svg width="800" height="800" viewBox="0 0 800 800" fill="none" xmlns="http://www.w3.org/2000/svg">
<g clip-path="url(#clip0_192_93)">
<g clip-path="url(#clip1_192_93)">
<path fill-rule="evenodd" clip-rule="evenodd" d="M613.12 737.285C543.32 737.285 498.2 704.008 476.2 660.488L537.4 625.039C553.52 651.359 574.44 670.684 611.52 670.684C642.64 670.684 662.52 655.113 662.52 633.633C662.52 601.313 619.4 588.685 588.96 575.645C534.72 552.565 498.719 523.564 498.719 462.324C498.719 405.964 541.68 363.008 608.84 363.008C656.6 363.008 691 379.645 715.68 423.125L657.159 460.723C644.279 437.643 630.32 428.516 608.84 428.516C586.8 428.516 572.841 442.483 572.841 460.723C572.841 483.283 586.801 492.407 619.041 506.367C686.601 535.327 737.72 558.079 737.72 632.559C737.72 700.239 684.56 737.285 613.12 737.285ZM440 623.965C440 701.845 392.039 743.008 325.439 743.008C265.279 743.008 229.24 720 211.52 680H210.92H210.64H210.48L271.639 637.246C283.439 658.166 294.08 673.008 319.84 673.008C344.56 673.008 360 660.49 360 622.93V360H440V623.965ZM0 800H800V0H0V800Z" fill="url(#paint0_linear_192_93)"/>
</g>
</g>
<defs>
<linearGradient id="paint0_linear_192_93" x1="400" y1="0" x2="400" y2="800" gradientUnits="userSpaceOnUse">
<stop stop-color="#825CFF"/>
<stop offset="1" stop-color="#444CF7"/>
</linearGradient>
<clipPath id="clip0_192_93">
<rect width="800" height="800" fill="white"/>
</clipPath>
<clipPath id="clip1_192_93">
<rect width="800" height="800" fill="white"/>
</clipPath>
</defs>
</svg>
