<svg width="800" height="800" viewBox="0 0 800 800" fill="none" xmlns="http://www.w3.org/2000/svg">
<path d="M570.975 0C539.85 0.275 509 4.7 479.05 13.4L476.975 14.075C458.2 10.8 439.075 9 420.075 8.6C380.75 7.925 347 17.425 319.8 33.325C292.975 24.1 237.375 7.925 178.775 11.2C138.05 13.4 93.5 25.775 60.4 60.675C27.6 95.45 10.175 149.35 13.8 222.8C14.825 242.975 20.575 275.9 30.2 318.725C39.7 361.45 53.125 411.45 69.925 457.15C86.725 502.725 105.05 543.725 133.725 571.575C148.025 585.5 167.825 597.375 191.125 596.35C207.425 595.675 222.125 588.525 234.9 577.975C241.125 586.175 247.8 589.675 253.775 592.95C261.475 597.125 268.75 599.975 276.45 601.825C290.25 605.325 313.825 609.9 341.425 605.2C350.8 603.625 360.7 600.525 370.6 596.225C371 607.15 371.4 617.95 371.775 628.9C373.2 663.4 374.15 695.3 384.4 723.3C386.1 727.875 390.675 751.3 408.625 772.125C426.725 792.95 461.85 805.85 502.1 797.25C530.375 791.25 566.425 780.325 590.4 746.225C614.1 712.625 624.775 664.325 626.875 585.925C627.375 581.625 628.05 578.125 628.675 574.725L634.275 575.25H634.95C665.15 576.55 697.975 572.25 725.45 559.475C749.65 548.275 768.025 536.95 781.425 516.775C784.7 511.8 788.45 505.7 789.4 495.275C790.425 485 784.425 468.7 774.525 461.175C754.75 446.075 742.25 451.8 728.825 454.675C715.7 457.55 702.25 459.075 688.85 459.475C727.375 394.65 754.975 325.65 770.75 264.675C780.125 228.6 785.35 195.4 785.725 166.375C786.25 137.35 783.8 111.7 766.45 89.45C712.025 20.05 635.575 0.75 576.475 0.125C574.65 0.125 572.85 0.125 571 0.125L570.975 0ZM569.4 21.375C625.275 20.85 696.725 36.475 748.025 102.075C759.625 116.8 763.025 138.275 762.625 164.85C762.225 191.425 757.3 223.05 748.3 257.825C731 325.3 698.025 403.65 651.825 474.125C653.4 475.3 655.2 476.325 657.025 477C666.65 481.025 688.65 484.4 732.65 475.425C743.725 473.05 751.825 471.525 760.275 477.9C764.45 481.4 766.65 486.625 766.375 492.1C765.875 496.125 764.45 500.025 761.95 503.3C753.475 516.025 736.725 528.175 715.225 538.2C696.225 547.025 668.85 551.6 644.8 551.875C632.575 552 621.375 551.075 611.825 548.075L611.325 547.975C607.65 583.25 599.225 653.05 593.725 684.8C589.325 710.425 581.625 730.9 566.925 746.125C552.2 761.5 531.5 770.6 503.5 776.6C468.875 784.025 443.725 776.075 427.475 762.4C411.225 748.725 403.775 730.5 399.35 719.425C396.25 711.75 394.675 701.85 393.125 688.55C391.55 675.275 390.525 659.125 389.725 640.775C388.7 612.775 388.3 584.775 388.7 556.65C374.275 569.95 356.3 578.65 337 582.05C313.975 585.95 293.525 582.05 281.3 579.05C275.3 577.475 269.425 575.275 263.975 572.275C258.25 569.275 252.9 565.9 249.275 559.1C247.175 555.2 246.55 550.675 247.45 546.375C248.475 541.95 251.075 538.175 254.625 535.3C261.25 529.925 270 526.975 283.125 524.225C307.1 519.25 315.55 515.9 320.625 511.825C324.925 508.45 329.9 501.425 338.45 491.125C338.45 490.75 338.45 490.225 338.325 489.825C322.85 489.325 307.725 485.3 294.05 477.85C289.125 483.05 263.45 510.15 232.35 547.65C219.325 563.25 204.875 572.25 189.525 572.925C174.3 573.55 160.45 565.9 148.75 554.55C125.325 531.75 106.55 492.55 90.275 448.275C74 404 60.85 354.675 51.35 312.75C41.975 270.675 36.375 236.825 35.575 220.55C32.075 151.15 48.35 104.425 76.2 74.85C104.05 45.275 142.225 34.225 179.475 32.025C246.275 28.25 309.8 51.55 322.575 56.5C347.3 39.7 379.2 29.3 419.05 29.925C437.95 30.2 456.675 32.65 475.05 37.225L475.725 36.825C483.8 34.1 492 31.625 500.325 29.825C523 24.45 546.15 21.725 569.325 21.35L569.4 21.375ZM574.475 43.625H569.55C550.55 43.85 531.375 46.1 512.775 50.125C554.3 68.5 585.675 96.725 607.8 125.125C623.175 144.65 635.8 166.125 645.425 189.05C649.225 197.925 651.7 205.325 653 211.05C653.775 213.925 654.175 216.375 654.425 218.85C654.425 220.15 654.55 221.475 653.9 223.675C653.9 223.8 653.775 224.075 653.775 224.2C654.85 253.375 647.55 273.125 646.6 301C645.975 321.2 651.175 344.9 652.475 370.8C653.65 395.125 650.675 421.825 634.9 448.125C636.2 449.7 637.375 451.25 638.675 452.95C680.475 387.05 710.675 314.275 726.7 252.15C735.3 218.675 739.825 188.35 740.225 164.425C740.625 140.45 736.2 123 730.45 115.725C685.65 58.55 625.125 43.95 574.45 43.6L574.475 43.625ZM414.7 52.2C375.4 52.325 347.125 64.2 325.675 82.025C303.5 100.525 288.675 125.65 279.05 151.55C267.45 182.15 263.425 211.825 261.85 232.025L262.375 231.75C274.25 225.125 289.85 218.35 306.65 214.575C323.325 210.65 341.425 209.475 357.675 215.875C374.1 222.1 387.5 237.075 392.45 259.6C415.925 368.2 385.175 408.575 373.85 439.025C369.55 450.1 365.775 461.3 362.775 472.75C364.2 472.475 365.65 472.075 367.075 471.95C375.15 471.325 381.375 473.925 385.05 475.475C396.525 480.275 404.325 490.175 408.625 501.5C409.65 504.5 410.425 507.6 410.95 511C411.35 512.3 411.625 513.725 411.625 515.175C410.325 556.7 410.425 598.25 412 639.775C412.8 657.75 413.975 673.5 415.4 686C416.825 698.375 418.775 707.875 420.1 711.125C424.375 721.8 430.625 735.725 441.975 745.225C453.175 754.75 469.3 761 498.875 754.75C524.5 749.15 540.275 741.575 550.8 730.65C561.375 719.575 567.6 704.35 571.625 681.05C577.75 646.025 589.85 544.45 591.3 525.45C590.675 510.975 592.725 499.925 597.425 491.45C602.1 482.85 609.4 477.525 615.8 474.65C618.9 473.225 621.9 472.325 624.375 471.525C621.775 467.9 619.05 464.25 616.3 460.725C607.2 449.65 599.625 437.3 594.025 424.15C591.425 418.65 588.55 413.175 585.425 407.975C581.025 400.05 575.425 390 569.55 378.675C557.825 356.275 545.075 328.95 538.425 302.375C531.8 275.8 530.9 248.35 547.825 229.075C562.8 211.875 589.225 204.75 628.65 208.775C627.475 205.25 626.85 202.25 624.875 197.7C615.9 176.6 604.175 156.8 590.1 138.825C556.625 96 502.325 53.525 418.625 52.1L414.7 52.2ZM193.375 53.9C189.2 53.9 184.9 54.025 180.75 54.3C147.025 56.275 115.25 66 92.45 90.1C69.675 114.325 54.725 153.775 57.95 219.275C58.625 231.775 63.95 266.4 73.175 307.675C82.45 348.975 95.575 397.55 111.35 440.5C127.075 483.325 146.125 520.7 164.35 538.4C173.45 547.125 181.375 550.775 188.55 550.525C195.725 550.125 204.45 545.95 215.125 533.2C234.525 509.775 254.6 487.1 275.425 464.975C245.45 438.8 230.75 399.25 236.625 359.9C240 335.3 240.525 312.225 240 294C239.625 276.3 238.425 264.6 238.425 257.175C238.425 256.9 238.425 256.775 238.425 256.5V256.375L238.3 256.15C238.3 217.725 245.1 179.725 258.1 143.65C267.475 118.75 281.3 93.65 302.1 73.175C281.675 66.4 245.325 56.275 206.025 54.3C201.85 54.025 197.525 53.9 193.375 53.9ZM606.625 229.925C584 230.325 571.35 236.2 564.6 243.725C555.2 254.55 554.3 273.55 560.175 297C566 320.425 578.15 346.6 589.475 368.375C595.075 379.3 600.55 389.075 604.95 397C609.525 405.075 612.775 410.675 614.725 415.625C616.55 420.05 618.65 423.95 620.725 427.6C629.45 409.1 631.025 391 630.1 372C628.925 348.575 623.475 324.6 624.375 300.4C625.3 272 630.9 253.5 631.3 231.625C623.2 230.6 614.875 229.925 606.675 229.925H606.625ZM332.175 233.875C325.275 233.875 318.375 234.775 311.6 236.35C298.175 239.625 285.3 244.55 273.175 251.325C269.15 253.525 265.25 256.025 261.6 258.9L260.8 259.525C261.075 264.5 261.975 276.2 262.375 293.65C262.775 312.65 262.375 336.85 258.75 363.05C250.675 420.075 292.075 467.225 340.65 467.35C343.525 455.625 348.175 443.75 352.875 431.275C366.4 394.8 392.975 368.25 370.575 264.35C366.95 247.425 359.65 240.525 349.6 236.625C344 234.65 338.175 233.75 332.175 233.9V233.875ZM596.1 240.625H597.8C599.875 240.75 601.975 240.9 603.775 241.4C605.475 241.8 607.05 242.325 608.35 243.225C609.65 244 610.55 245.3 610.825 246.85V247.125C610.825 248.7 610.425 250.25 609.65 251.7C608.625 253.5 607.45 255.2 606.025 256.625C602.625 260.4 598.05 262.9 593.125 263.65C588.3 264.325 583.5 263.025 579.45 260.275C577.875 259.075 576.325 257.775 575.15 256.35C573.975 255.175 573.325 253.625 573.05 252.05C572.95 250.525 573.325 248.95 574.35 247.775C575.55 246.575 576.85 245.55 578.275 244.775C581.5 242.95 585.8 241.65 590.775 240.975C592.575 240.75 594.4 240.6 596.1 240.475V240.625ZM335.4 246.225C337.1 246.225 339.075 246.35 340.9 246.6C346.1 247.4 350.525 248.7 354.025 250.775C355.725 251.575 357.3 252.875 358.45 254.3C359.75 255.875 360.375 257.8 360.275 259.9C359.875 261.825 359.075 263.675 357.775 265.1C356.35 266.8 354.8 268.225 352.975 269.4C348.675 272.525 343.35 273.825 338 273.175C332.625 272.275 327.7 269.675 324.075 265.65C322.5 263.95 321.2 262.125 320.15 260.175C318.975 258.35 318.475 256.275 318.725 254.175C319.25 250.675 322.25 248.7 325.125 247.675C328.4 246.6 331.9 246.25 335.4 246.375V246.225ZM637.375 491H637.25C632.45 492.825 628.425 493.5 625.025 495.075C621.525 496.375 618.75 498.975 617.1 502.2C614.875 506 613.2 512.775 613.7 524.325C615.125 525.4 616.825 526.15 618.675 526.7C624.275 528.4 633.9 529.575 644.575 529.425C665.8 529.15 691.975 524.225 705.9 517.7C717.225 512.5 727.9 505.475 737.275 497.275C690.8 506.775 664.65 504.3 648.475 497.675C644.575 495.975 640.775 493.75 637.375 491ZM369.675 494.125H369C367.2 494.25 364.7 494.925 359.625 500.4C348.025 513.4 344 521.6 334.5 529.175C324.875 536.85 312.5 540.9 287.625 545.975C279.825 547.55 275.25 549.35 272.25 550.775C273.15 551.575 273.15 551.85 274.575 552.475C278.25 554.575 282.9 556.275 286.7 557.3C297.375 559.9 314.8 563.025 333.175 559.9C351.4 556.775 370.4 548.025 386.7 525.275C389.575 521.375 389.8 515.5 387.475 509.25C385.15 503.15 380.05 497.675 376.55 496.25C374.325 495.175 371.975 494.55 369.65 494.15L369.675 494.125Z" fill="url(#paint0_linear_188_36)"/>
<defs>
<linearGradient id="paint0_linear_188_36" x1="401.421" y1="0" x2="401.421" y2="799.95" gradientUnits="userSpaceOnUse">
<stop stop-color="#825CFF"/>
<stop offset="1" stop-color="#444CF7"/>
</linearGradient>
</defs>
</svg>
