<svg width="800" height="800" viewBox="0 0 800 800" fill="none" xmlns="http://www.w3.org/2000/svg">
<g clip-path="url(#clip0_188_28)">
<path fill-rule="evenodd" clip-rule="evenodd" d="M509.76 738.32C490.48 738.32 474.88 722.643 474.88 703.262C474.88 683.881 490.48 668.242 509.76 668.242C529.04 668.242 544.64 683.881 544.64 703.262C544.64 722.643 529.04 738.32 509.76 738.32ZM402.88 800C606 800 593.32 711.465 593.32 711.465L593.08 619.746H399.28V592.207H670.04C670.04 592.207 800 607.045 800 401.055C800 195.063 686.6 202.324 686.6 202.324H618.879V297.949C618.879 297.949 622.52 411.934 507.28 411.934H315.04C315.04 411.934 207.04 410.22 207.04 516.895V693.242C207.04 693.242 190.64 800 402.88 800ZM290.28 61.6797C309.56 61.6797 325.12 77.3575 325.12 96.7383C325.12 116.119 309.56 131.758 290.28 131.758C271 131.758 255.4 116.119 255.4 96.7383C255.4 77.3575 271 61.6797 290.28 61.6797ZM397.12 0C194.04 0 206.72 88.5352 206.72 88.5352L206.96 180.254H400.76V207.793H129.96C129.96 207.793 0 192.955 0 398.945C0 604.937 113.44 597.676 113.44 597.676H181.121V502.051C181.121 502.051 177.48 388.066 292.76 388.066H484.96C484.96 388.066 592.96 389.78 592.96 283.105V106.758C592.96 106.758 609.36 0 397.12 0Z" fill="url(#paint0_linear_188_28)"/>
</g>
<defs>
<linearGradient id="paint0_linear_188_28" x1="400" y1="0" x2="400" y2="800" gradientUnits="userSpaceOnUse">
<stop stop-color="#825CFF"/>
<stop offset="1" stop-color="#444CF7"/>
</linearGradient>
<clipPath id="clip0_188_28">
<rect width="800" height="800" fill="white"/>
</clipPath>
</defs>
</svg>
