<svg width="800" height="800" viewBox="0 0 800 800" fill="none" xmlns="http://www.w3.org/2000/svg">
<g clip-path="url(#clip0_188_16)">
<path d="M400 0C179.1 0 0 179.1 0 400C0 620.9 179.1 800 400 800C620.9 800 800 620.9 800 400C800 179.1 620.9 0 400 0ZM596.467 274.033L530.8 583.367C525.967 605.3 512.9 610.633 494.667 600.3L394.667 526.633L346.467 573.1C341.8 579.1 334.567 582.933 326.467 582.933C326.4 582.933 326.367 582.933 326.3 582.933L333.4 481.133L518.733 313.733C526.733 306.633 516.933 302.6 506.3 309.7L277.333 453.9L178.667 423.1C157.333 416.333 156.733 401.767 183.167 391.3L568.7 242.7C586.633 236.167 602.233 246.967 596.433 274.067L596.467 274.033Z" fill="url(#paint0_linear_188_16)"/>
</g>
<defs>
<linearGradient id="paint0_linear_188_16" x1="400" y1="0" x2="400" y2="800" gradientUnits="userSpaceOnUse">
<stop stop-color="#825CFF"/>
<stop offset="1" stop-color="#444CF7"/>
</linearGradient>
<clipPath id="clip0_188_16">
<rect width="800" height="800" fill="white"/>
</clipPath>
</defs>
</svg>
