<svg width="800" height="800" viewBox="0 0 800 800" fill="none" xmlns="http://www.w3.org/2000/svg">
<g clip-path="url(#clip0_190_49)">
<path d="M378.743 799.37C368.714 798.703 348.757 796.769 338.668 795.235L333.662 794.434L333.462 677.619L333.262 560.81L250.684 643.418L168.106 726.032L159.775 719.763C137.473 702.963 117.535 684.422 98.3042 662.606C92.6653 656.203 79.8871 640.23 76.6224 635.488L74.1095 631.82L156.812 549.079L239.515 466.338H122.372H5.22925L3.76285 455.827C-1.28952 419.558 -1.26286 391.68 3.89618 346.521L5.33592 333.836L122.27 333.169H239.204L156.799 250.735C111.477 205.396 74.3948 168.074 74.3948 167.8C74.3948 167.067 86.3765 151.36 92.596 143.93C112.04 120.681 135.462 98.4316 159.791 80.0973L168.122 73.828L250.701 156.429L333.279 239.043L333.479 122.235L333.679 5.42627L339.018 4.62593C363.492 0.824352 392.611 -0.776315 416.251 0.35749C431.408 1.09113 448.799 2.75849 461.122 4.62593L466.461 5.42627L466.661 122.235L466.861 239.043L549.439 156.429L632.017 73.828L640.348 80.0973C670.203 102.593 696.855 129.158 719.296 158.783C722.842 163.452 725.748 167.527 725.748 167.8C725.748 167.8 688.816 205.243 643.677 250.401C598.539 295.554 561.608 332.722 561.608 333.002C561.608 333.002 614.097 333.669 678.251 333.669H794.894L796.361 344.187C799.187 364.462 800 376.921 800 400.084C800 423.253 799.187 435.705 796.361 455.994L794.894 466.505H677.752H560.609L643.29 549.226L725.972 631.94L724.758 633.807C724.092 634.875 721.132 638.876 718.18 642.698C696.03 671.643 669.602 697.847 640.355 719.883L632.024 726.153L549.446 643.538L466.868 560.93L466.668 677.739L466.468 794.548L461.129 795.348C434.861 799.416 405.794 800.884 378.767 799.483L378.743 799.37ZM423.74 498.985C440.705 497.384 462.013 492.715 477.709 487.247L484.971 484.712L486.545 480.377C491.424 466.945 496.329 446.156 498.589 429.316C500.242 416.991 500.242 382.896 498.589 370.571C496.329 353.724 491.426 332.936 486.545 319.51L484.971 315.175L477.709 312.641C461.947 307.105 441.307 302.636 423.073 300.776C418.667 300.109 408.311 299.975 400.054 299.975C391.797 299.975 381.438 300.642 377.034 300.776C358.799 302.643 338.16 307.112 322.398 312.641L315.136 315.175L313.556 319.51C308.664 332.956 303.756 353.798 301.52 370.571C300.04 381.676 299.84 415.557 301.186 426.641C303.266 443.682 307.245 461.429 312.493 477.036L315.072 484.719L320.358 486.586C352.292 497.971 388.571 502.313 423.74 498.985Z" fill="url(#paint0_linear_190_49)"/>
</g>
<defs>
<linearGradient id="paint0_linear_190_49" x1="400" y1="0" x2="400" y2="800" gradientUnits="userSpaceOnUse">
<stop stop-color="#825CFF"/>
<stop offset="1" stop-color="#444CF7"/>
</linearGradient>
<clipPath id="clip0_190_49">
<rect width="800" height="800" fill="white"/>
</clipPath>
</defs>
</svg>
