<?xml version="1.0" standalone="no"?>
<!DOCTYPE svg PUBLIC "-//W3C//DTD SVG 20010904//EN"
 "http://www.w3.org/TR/2001/REC-SVG-20010904/DTD/svg10.dtd">
<svg version="1.0" xmlns="http://www.w3.org/2000/svg"
 width="647.000000pt" height="647.000000pt" viewBox="0 0 647.000000 647.000000"
 preserveAspectRatio="xMidYMid meet">
<metadata>
Created by potrace 1.14, written by Peter Selinger 2001-2017
</metadata>
<g transform="translate(0.000000,647.000000) scale(0.100000,-0.100000)"
fill="#000000" stroke="none">
<path d="M3166 6341 c-3 -5 -8 -31 -11 -59 -3 -28 -9 -62 -15 -76 -5 -14 -6
-26 -1 -26 9 0 18 36 27 105 3 22 7 46 9 53 5 14 -1 16 -9 3z"/>
<path d="M3045 6330 c-3 -5 -1 -10 4 -10 6 0 11 5 11 10 0 6 -2 10 -4 10 -3 0
-8 -4 -11 -10z"/>
<path d="M3282 6311 c-6 -17 -7 -31 -3 -31 10 0 25 50 18 57 -3 2 -9 -10 -15
-26z"/>
<path d="M2921 6304 c0 -11 3 -14 6 -6 3 7 2 16 -1 19 -3 4 -6 -2 -5 -13z"/>
<path d="M3037 6295 c-4 -8 -2 -17 3 -20 6 -4 10 3 10 14 0 25 -6 27 -13 6z"/>
<path d="M3400 6289 c0 -5 5 -7 10 -4 6 3 10 8 10 11 0 2 -4 4 -10 4 -5 0 -10
-5 -10 -11z"/>
<path d="M3528 6255 c-8 -19 -12 -35 -8 -35 9 0 35 59 28 65 -2 2 -11 -11 -20
-30z"/>
<path d="M2453 6266 c-13 -6 -23 -14 -23 -18 0 -5 -7 -8 -15 -8 -8 0 -15 -4
-15 -9 0 -5 -6 -16 -13 -23 -16 -17 -47 -106 -47 -135 0 -13 -4 -23 -10 -23
-5 0 -9 -6 -7 -12 1 -7 -9 -14 -22 -16 -19 -3 -22 0 -18 13 4 9 3 14 -3 10 -6
-3 -8 -16 -4 -29 8 -32 -30 -76 -65 -76 -25 0 -27 -3 -23 -30 4 -27 1 -30 -22
-30 -24 0 -31 -10 -27 -34 1 -5 -9 -6 -22 -4 -23 4 -24 3 -16 -25 5 -17 8 -31
6 -32 -52 -23 -264 -131 -294 -150 -41 -25 -42 -25 -53 -6 -5 11 -10 27 -10
35 0 9 -4 16 -10 16 -13 0 -13 -6 6 -41 8 -17 14 -32 12 -33 -2 -2 -51 -35
-110 -75 -230 -152 -482 -384 -633 -579 -38 -50 -72 -91 -75 -91 -3 0 -13 18
-24 40 -10 22 -29 45 -42 51 -13 6 -24 15 -24 20 0 4 -7 8 -15 8 -8 0 -15 5
-15 10 0 6 -9 10 -20 10 -10 0 -29 10 -40 23 -12 12 -21 18 -20 12 5 -26 -3
-35 -35 -41 -43 -8 -101 -59 -111 -99 -4 -16 -14 -36 -21 -44 -22 -22 3 -151
26 -137 5 3 11 -15 15 -41 10 -71 9 -76 -15 -70 l-21 6 21 -23 c14 -15 21 -35
21 -64 0 -46 -13 -60 -38 -42 -9 7 -5 1 10 -12 25 -24 33 -56 29 -117 -1 -23
-2 -23 -19 -8 -10 10 -22 17 -27 17 -5 0 5 -10 22 -23 l31 -22 -39 -100 c-199
-511 -243 -1092 -124 -1630 34 -157 123 -420 184 -549 34 -72 47 -111 44 -129
-4 -22 -2 -27 15 -27 14 0 29 -16 50 -52 15 -29 38 -69 50 -89 l22 -36 -28 -6
c-16 -3 -34 -17 -42 -31 -7 -14 -19 -26 -27 -26 -7 0 -13 -7 -13 -15 0 -8 -11
-31 -25 -51 -45 -66 -29 -147 44 -222 33 -34 59 -51 82 -55 93 -16 95 -17 114
-60 10 -23 31 -61 47 -84 15 -23 28 -47 28 -53 0 -6 4 -8 10 -5 5 3 10 0 10
-7 0 -8 23 -34 50 -58 28 -25 74 -66 103 -92 28 -27 59 -51 69 -54 10 -3 18
-10 18 -15 0 -5 7 -9 15 -9 8 0 15 -3 15 -8 0 -13 56 -32 96 -34 41 -1 68 -14
59 -29 -3 -4 7 -2 22 6 16 9 40 13 55 9 14 -3 29 0 33 5 3 6 13 11 21 11 13 0
15 -9 10 -42 -5 -35 0 -42 7 -11 7 28 77 69 77 44 0 -5 14 -11 30 -15 19 -3
34 -14 40 -28 7 -18 9 -19 9 -5 1 24 15 22 79 -16 31 -18 84 -46 117 -62 33
-15 62 -31 65 -34 3 -3 10 -7 15 -8 47 -10 260 -105 268 -120 6 -10 17 -24 25
-32 14 -14 22 -9 34 20 3 7 174 -34 184 -44 4 -3 0 -13 -8 -20 -40 -40 29
-267 81 -267 6 0 11 -4 11 -10 0 -5 11 -10 25 -10 14 0 25 -4 25 -10 0 -6 32
-10 75 -10 43 0 75 4 75 10 0 6 7 10 15 10 8 0 15 5 15 10 0 6 7 10 15 10 8 0
15 5 15 10 0 6 6 10 13 10 7 0 18 9 24 19 11 18 53 26 53 10 0 -7 107 -33 133
-32 9 0 17 -4 17 -8 0 -11 204 -12 214 -1 4 4 29 8 54 9 70 2 155 24 173 45 9
10 21 18 27 18 6 0 18 10 26 21 8 12 21 19 29 16 8 -3 14 0 14 6 -1 30 17 77
29 77 8 0 14 5 14 10 0 6 13 10 28 10 23 0 28 4 27 26 0 19 6 28 20 30 17 2
63 11 100 19 6 2 66 19 135 40 202 59 425 157 615 270 86 50 85 50 85 32 0
-18 34 -57 49 -57 6 0 11 -3 11 -7 0 -9 49 -33 67 -33 7 0 13 -4 13 -10 0 -20
110 -11 151 12 22 12 39 25 39 30 0 4 6 8 14 8 7 0 19 14 26 30 7 17 16 30 20
30 10 0 23 69 24 124 1 35 4 39 41 54 22 9 42 19 45 22 3 4 21 15 40 25 32 16
240 221 240 237 0 4 11 24 25 44 34 50 46 99 34 132 -11 29 5 72 27 72 7 0 2
11 -12 26 -19 18 -24 31 -20 49 4 14 1 25 -6 27 -7 3 10 40 43 96 51 86 72
107 81 80 2 -6 14 -12 26 -13 18 -1 22 4 22 27 0 15 -5 37 -11 47 -7 10 -9 30
-5 45 6 23 10 25 34 19 25 -6 26 -6 9 11 -22 22 -22 22 9 87 115 238 195 534
243 904 10 75 7 493 -4 560 -3 22 -15 96 -26 165 -51 324 -178 675 -345 957
-73 122 -71 117 -44 110 30 -8 66 17 76 51 4 15 6 31 5 36 -1 4 6 15 16 23 17
14 17 14 0 9 -9 -3 -32 3 -50 14 -40 25 -59 25 -77 1 -7 -11 -17 -18 -22 -15
-4 3 -8 -6 -8 -20 0 -14 -3 -26 -7 -26 -5 1 -38 42 -76 93 -127 172 -344 391
-530 534 -74 57 -84 69 -65 71 13 2 28 8 35 14 7 5 18 6 24 2 8 -4 9 -3 5 4
-4 7 4 23 17 36 14 14 28 43 32 65 4 23 11 41 16 41 5 0 9 5 9 10 0 6 -7 10
-15 10 -8 0 -15 9 -15 19 0 11 -7 26 -15 35 -8 8 -15 18 -15 23 0 17 -73 83
-91 83 -11 0 -19 5 -19 10 0 14 -111 12 -143 -2 -15 -7 -30 -21 -33 -30 -4
-14 -16 -18 -50 -18 -46 0 -53 7 -31 29 6 8 -2 4 -19 -8 -39 -28 -110 -27
-108 2 2 22 -8 22 -23 -1 -8 -14 -25 -19 -68 -21 -55 -2 -56 -1 -45 19 6 12 9
24 6 28 -3 3 -6 1 -6 -4 0 -5 -7 -17 -14 -27 -13 -17 -16 -17 -72 4 -33 12
-63 25 -68 30 -5 4 0 23 12 43 29 49 18 46 -13 -3 l-24 -40 -53 20 c-29 11
-88 29 -130 40 -47 13 -79 27 -83 37 -3 9 -3 13 1 9 8 -8 44 57 44 79 0 7 6
15 13 17 9 4 9 6 -1 6 -8 1 -19 -12 -25 -29 -14 -37 -37 -39 -37 -4 0 27 -15
60 -37 83 -10 10 -13 26 -9 50 6 34 5 34 -7 13 -14 -24 -47 -45 -90 -56 -18
-4 -24 -11 -21 -21 4 -8 1 -15 -5 -15 -15 0 -14 -73 1 -88 22 -22 -1 -25 -84
-14 -244 34 -564 34 -769 1 -38 -7 -72 -10 -74 -7 -3 3 0 18 6 34 21 53 14
174 -10 174 -9 0 -36 57 -36 75 0 5 -13 13 -30 16 -49 11 -198 7 -222 -5z"/>
<path d="M3275 6258 c-9 -27 -35 -144 -34 -158 1 -17 17 31 24 75 3 17 10 45
15 63 8 30 4 46 -5 20z"/>
<path d="M3030 6250 c0 -5 5 -10 11 -10 5 0 7 5 4 10 -3 6 -8 10 -11 10 -2 0
-4 -4 -4 -10z"/>
<path d="M2919 6248 c-5 -18 -6 -38 -1 -34 7 8 12 36 6 36 -2 0 -4 -1 -5 -2z"/>
<path d="M3648 6192 c-21 -58 -21 -62 -7 -62 5 0 7 4 4 10 -3 5 1 23 10 40 9
17 15 38 13 46 -2 9 -11 -7 -20 -34z"/>
<path d="M3025 6183 c-4 -27 -9 -61 -11 -78 -3 -16 -2 -27 1 -23 3 3 8 16 10
29 12 78 16 119 11 119 -3 0 -8 -21 -11 -47z"/>
<path d="M3515 6199 c-4 -6 -5 -12 -2 -15 2 -3 7 2 10 11 7 17 1 20 -8 4z"/>
<path d="M2911 6149 c-1 -29 -4 -55 -6 -60 -3 -4 -1 -10 5 -14 6 -4 10 12 11
42 0 26 2 56 4 66 2 9 0 17 -4 17 -4 0 -9 -23 -10 -51z"/>
<path d="M3136 6158 c-10 -33 -15 -82 -7 -68 10 17 22 80 15 80 -3 0 -6 -6 -8
-12z"/>
<path d="M3495 6159 c-4 -6 -5 -13 -2 -16 3 -2 -1 -22 -8 -44 -8 -21 -10 -39
-6 -39 8 0 14 21 28 93 3 19 -2 22 -12 6z"/>
<path d="M3615 6095 c-4 -16 -10 -34 -14 -40 -10 -19 -11 -46 -1 -40 6 4 10
12 9 18 -1 7 3 25 10 41 6 16 10 34 8 40 -3 6 -8 -2 -12 -19z"/>
<path d="M3906 6095 c-9 -26 -7 -32 5 -12 6 10 9 21 6 23 -2 3 -7 -2 -11 -11z"/>
<path d="M3235 6070 c3 -5 8 -10 11 -10 2 0 4 5 4 10 0 6 -5 10 -11 10 -5 0
-7 -4 -4 -10z"/>
<path d="M3466 6035 c-9 -26 -7 -32 5 -12 6 10 9 21 6 23 -2 3 -7 -2 -11 -11z"/>
<path d="M4037 6023 c-29 -48 -47 -86 -43 -90 2 -3 16 18 30 46 15 28 24 51
22 51 -3 0 -7 -3 -9 -7z"/>
<path d="M2097 5883 c-10 -9 -9 -23 1 -23 5 0 9 7 9 15 0 17 -1 18 -10 8z"/>
<path d="M1980 5851 c0 -6 4 -13 10 -16 6 -3 7 1 4 9 -7 18 -14 21 -14 7z"/>
<path d="M1990 5801 c0 -11 5 -23 10 -26 6 -4 8 -11 5 -16 -4 -5 -1 -9 5 -9 7
0 9 7 6 16 -3 9 -6 24 -6 35 0 10 -4 19 -10 19 -5 0 -10 -9 -10 -19z"/>
<path d="M1835 5800 c3 -5 8 -10 11 -10 2 0 4 5 4 10 0 6 -5 10 -11 10 -5 0
-7 -4 -4 -10z"/>
<path d="M1704 5755 c9 -20 15 -38 15 -41 0 -3 2 -8 5 -11 3 -3 4 3 2 13 -6
29 -25 74 -31 74 -3 0 1 -16 9 -35z"/>
<path d="M1550 5757 c7 -21 6 -35 -5 -57 -31 -61 -15 -97 63 -137 l42 -22 0
30 c0 17 4 28 9 25 12 -8 29 35 24 64 -4 28 -42 72 -54 64 -5 -3 -9 0 -9 6 0
8 -9 10 -25 6 -14 -4 -25 -3 -25 2 0 4 -7 17 -15 28 -14 18 -14 17 -5 -9z"/>
<path d="M1856 5745 c4 -8 8 -15 10 -15 2 0 4 7 4 15 0 8 -4 15 -10 15 -5 0
-7 -7 -4 -15z"/>
<path d="M1910 5720 c0 -5 5 -10 11 -10 5 0 7 5 4 10 -3 6 -8 10 -11 10 -2 0
-4 -4 -4 -10z"/>
<path d="M1866 5707 c3 -10 9 -15 12 -12 3 3 0 11 -7 18 -10 9 -11 8 -5 -6z"/>
<path d="M1430 5691 c0 -6 4 -13 10 -16 6 -3 7 1 4 9 -7 18 -14 21 -14 7z"/>
<path d="M1300 5661 c0 -6 4 -13 10 -16 6 -3 7 1 4 9 -7 18 -14 21 -14 7z"/>
<path d="M1450 5648 c0 -9 5 -20 10 -23 13 -8 13 5 0 25 -8 13 -10 13 -10 -2z"/>
<path d="M1470 5601 c0 -5 5 -13 10 -16 6 -3 10 -2 10 4 0 5 -4 13 -10 16 -5
3 -10 2 -10 -4z"/>
<path d="M1499 5548 c4 -12 13 -23 20 -24 6 -1 7 0 1 3 -5 2 -10 13 -10 24 0
10 -4 19 -10 19 -5 0 -6 -9 -1 -22z"/>
<path d="M1390 5491 c28 -55 41 -60 16 -6 -12 24 -24 44 -29 45 -4 0 2 -18 13
-39z"/>
<path d="M5129 5513 c-13 -16 -12 -17 4 -4 9 7 17 15 17 17 0 8 -8 3 -21 -13z"/>
<path d="M5086 5475 c-11 -8 -15 -15 -9 -15 6 0 16 7 23 15 16 19 11 19 -14 0z"/>
<path d="M1001 5433 c7 -12 15 -20 18 -17 3 2 -3 12 -13 22 -17 16 -18 16 -5
-5z"/>
<path d="M5020 5430 c-9 -6 -10 -10 -3 -10 6 0 15 5 18 10 8 12 4 12 -15 0z"/>
<path d="M5169 5403 c-13 -16 -12 -17 4 -4 9 7 17 15 17 17 0 8 -8 3 -21 -13z"/>
<path d="M5360 5400 c-9 -6 -10 -10 -3 -10 6 0 15 5 18 10 8 12 4 12 -15 0z"/>
<path d="M1056 5357 c3 -10 9 -15 12 -12 3 3 0 11 -7 18 -10 9 -11 8 -5 -6z"/>
<path d="M5105 5350 c-3 -6 1 -7 9 -4 18 7 21 14 7 14 -6 0 -13 -4 -16 -10z"/>
<path d="M5269 5333 c-13 -16 -12 -17 4 -4 9 7 17 15 17 17 0 8 -8 3 -21 -13z"/>
<path d="M1080 5316 c0 -2 8 -10 18 -17 15 -13 16 -12 3 4 -13 16 -21 21 -21
13z"/>
<path d="M5389 5273 c-13 -16 -12 -17 4 -4 9 7 17 15 17 17 0 8 -8 3 -21 -13z"/>
<path d="M987 5249 c7 -7 15 -10 18 -7 3 3 -2 9 -12 12 -14 6 -15 5 -6 -5z"/>
<path d="M5319 5229 l-24 -20 28 17 c15 9 27 18 27 20 0 8 -8 4 -31 -17z"/>
<path d="M5259 5189 l-24 -20 28 17 c15 9 27 18 27 20 0 8 -8 4 -31 -17z"/>
<path d="M910 5171 c0 -6 4 -13 10 -16 6 -3 7 1 4 9 -7 18 -14 21 -14 7z"/>
<path d="M5830 5095 c35 -36 67 -65 69 -65 3 0 -24 29 -59 65 -35 36 -67 65
-69 65 -3 0 24 -29 59 -65z"/>
<path d="M960 5115 c13 -14 26 -25 28 -25 3 0 -5 11 -18 25 -13 14 -26 25 -28
25 -3 0 5 -11 18 -25z"/>
<path d="M5510 5060 c-9 -6 -10 -10 -3 -10 6 0 15 5 18 10 8 12 4 12 -15 0z"/>
<path d="M5435 5020 c-3 -5 -1 -10 4 -10 6 0 11 5 11 10 0 6 -2 10 -4 10 -3 0
-8 -4 -11 -10z"/>
<path d="M5395 5000 c-3 -6 1 -7 9 -4 18 7 21 14 7 14 -6 0 -13 -4 -16 -10z"/>
<path d="M5624 4975 c-18 -14 -18 -14 4 -8 12 3 22 9 22 14 0 12 -3 11 -26 -6z"/>
<path d="M5545 4940 c-3 -6 1 -7 9 -4 18 7 21 14 7 14 -6 0 -13 -4 -16 -10z"/>
<path d="M5470 4899 c0 -5 5 -7 10 -4 6 3 10 8 10 11 0 2 -4 4 -10 4 -5 0 -10
-5 -10 -11z"/>
<path d="M6105 4820 c44 -44 82 -80 85 -80 2 0 -31 36 -75 80 -44 44 -82 80
-85 80 -2 0 31 -36 75 -80z"/>
<path d="M5705 4860 c-3 -6 1 -7 9 -4 18 7 21 14 7 14 -6 0 -13 -4 -16 -10z"/>
<path d="M5740 4720 c-9 -6 -10 -10 -3 -10 6 0 15 5 18 10 8 12 4 12 -15 0z"/>
<path d="M5680 4700 c-9 -6 -10 -10 -3 -10 6 0 15 5 18 10 8 12 4 12 -15 0z"/>
<path d="M5630 4680 c-8 -5 -10 -10 -5 -10 6 0 17 5 25 10 8 5 11 10 5 10 -5
0 -17 -5 -25 -10z"/>
<path d="M5710 4560 c-9 -6 -10 -10 -3 -10 6 0 15 5 18 10 8 12 4 12 -15 0z"/>
</g>
</svg>
