<svg width="207" height="207" viewBox="0 0 207 207" fill="none" xmlns="http://www.w3.org/2000/svg">
<g id="8664895_clock_watch_schedule_icon 1" clip-path="url(#clip0_81_35)">
<path id="Vector" d="M93.7969 48.5156C93.7969 43.1385 98.1228 38.8125 103.5 38.8125C108.877 38.8125 113.203 43.1385 113.203 48.5156V98.325L147.69 121.289C152.137 124.281 153.35 130.305 150.035 134.752C147.407 139.199 141.383 140.412 136.935 137.097L98.1228 111.222C95.4141 109.767 93.7969 106.734 93.7969 103.136V48.5156ZM103.5 0C160.668 0 207 46.3324 207 103.5C207 160.668 160.668 207 103.5 207C46.3324 207 0 160.668 0 103.5C0 46.3324 46.3324 0 103.5 0ZM19.4062 103.5C19.4062 149.954 57.0463 187.594 103.5 187.594C149.954 187.594 187.594 149.954 187.594 103.5C187.594 57.0463 149.954 19.4062 103.5 19.4062C57.0463 19.4062 19.4062 57.0463 19.4062 103.5Z" fill="url(#paint0_linear_81_35)"/>
</g>
<defs>
<linearGradient id="paint0_linear_81_35" x1="103.5" y1="0" x2="103.5" y2="207" gradientUnits="userSpaceOnUse">
<stop stop-color="#825CFF"/>
<stop offset="1" stop-color="#444CF7"/>
</linearGradient>
<clipPath id="clip0_81_35">
<rect width="207" height="207" fill="white"/>
</clipPath>
</defs>
</svg>
