<svg width="150" height="171" viewBox="0 0 150 171" fill="none" xmlns="http://www.w3.org/2000/svg">
<g clip-path="url(#clip0_81_3)">
<path d="M150 24.4286V39.6964C150 53.1513 116.406 64.125 75 64.125C33.5936 64.125 0 53.1513 0 39.6964V24.4286C0 10.9737 33.5936 0 75 0C116.406 0 150 10.9737 150 24.4286ZM150 58.7812V93.1339C150 106.589 116.406 117.562 75 117.562C33.5936 117.562 0 106.589 0 93.1339V58.7812C16.1133 69.8505 45.6054 75.0035 75 75.0035C104.395 75.0035 133.886 69.8505 150 58.7812ZM150 112.219V146.571C150 160.026 116.406 171 75 171C33.5936 171 0 160.026 0 146.571V112.219C16.1133 123.288 45.6054 128.441 75 128.441C104.395 128.441 133.886 123.288 150 112.219Z" fill="url(#paint0_linear_81_3)"/>
</g>
<defs>
<linearGradient id="paint0_linear_81_3" x1="75" y1="0" x2="75" y2="171" gradientUnits="userSpaceOnUse">
<stop stop-color="#825CFF"/>
<stop offset="1" stop-color="#494DF8"/>
</linearGradient>
<clipPath id="clip0_81_3">
<rect width="150" height="171" fill="white"/>
</clipPath>
</defs>
</svg>
