<svg width="205" height="205" viewBox="0 0 205 205" fill="none" xmlns="http://www.w3.org/2000/svg">
<g id="8664817_face_smile_wink_icon 1" clip-path="url(#clip0_84_61)">
<path id="Vector" d="M136.133 125.242C127.805 135.252 115.513 140.978 102.5 140.978C89.4873 140.978 77.1913 135.22 68.8512 125.21C65.4571 121.106 59.3979 120.606 55.322 123.959C51.25 127.362 50.7175 133.416 54.11 137.472C66.1045 151.908 83.8018 160.156 102.5 160.156C121.198 160.156 138.912 151.9 150.907 137.482C154.35 133.43 153.768 127.372 149.695 123.969C145.622 120.566 139.536 121.118 136.133 125.242ZM70.1084 96.0938C77.2354 96.0938 82.9569 90.3882 82.9569 83.2812C82.9569 76.1743 77.2354 70.4688 70.1084 70.4688C63.0295 70.4688 57.3079 76.1743 57.3079 83.2812C57.3079 90.3882 63.3818 96.0938 70.1084 96.0938ZM134.531 72.1104C124.205 72.1104 112.169 78.8689 110.568 88.9788C109.889 93.4312 115.172 96.2339 118.472 93.283L122.302 89.8797C128.215 84.6266 140.776 84.6266 146.738 89.8797L150.483 93.2454C153.877 96.1982 159.235 93.433 158.507 88.9772C156.953 78.5166 144.821 72.1104 134.531 72.1104ZM102.5 0C45.8848 0 0 45.8848 0 102.5C0 159.115 45.8848 205 102.5 205C159.115 205 205 159.115 205 102.5C205 45.8848 159.115 0 102.5 0ZM102.5 185.781C56.5752 185.781 19.2188 148.421 19.2188 102.5C19.2188 56.5792 56.5752 19.2188 102.5 19.2188C148.425 19.2188 185.781 56.5792 185.781 102.5C185.781 148.421 148.425 185.781 102.5 185.781Z" fill="url(#paint0_linear_84_61)"/>
</g>
<defs>
<linearGradient id="paint0_linear_84_61" x1="102.5" y1="0" x2="102.5" y2="205" gradientUnits="userSpaceOnUse">
<stop stop-color="#825CFF"/>
<stop offset="1" stop-color="#494DF8"/>
</linearGradient>
<clipPath id="clip0_84_61">
<rect width="205" height="205" fill="white"/>
</clipPath>
</defs>
</svg>
