<svg width="800" height="800" viewBox="0 0 800 800" fill="none" xmlns="http://www.w3.org/2000/svg">
<g clip-path="url(#clip0_194_4)">
<path d="M400.011 557.989C373.786 557.989 352.494 579.259 352.494 605.484C352.494 631.72 373.786 652.992 400.011 652.992C426.236 652.992 447.506 631.72 447.506 605.484C447.508 579.259 426.238 557.989 400.011 557.989Z" fill="url(#paint0_linear_194_4)"/>
<path d="M789.214 636.123L469.952 83.1389C455.572 58.2264 428.77 42.7529 399.988 42.7529C371.227 42.7529 344.45 58.2279 330.07 83.1389L10.7844 636.1C-3.59529 661.011 -3.59529 691.961 10.7844 716.872C25.1657 741.783 51.9657 757.247 80.7266 757.247H719.273C748.033 757.247 774.834 741.783 789.214 716.872C803.595 691.961 803.595 661.011 789.214 636.123ZM725.727 675.633C721.117 683.606 712.533 688.548 703.305 688.548H96.6844C87.4781 688.548 78.8813 683.606 74.2953 675.609C69.6641 667.625 69.6407 657.726 74.2735 649.753L377.589 124.378C382.188 116.404 390.77 111.45 400.011 111.45C409.23 111.45 417.802 116.404 422.411 124.39L725.727 649.744C730.336 657.726 730.336 667.648 725.727 675.633Z" fill="url(#paint1_linear_194_4)"/>
<path d="M400.011 238.623C373.786 238.623 352.494 259.893 352.494 286.131L370.744 500.954C370.744 517.12 383.834 530.211 400.011 530.211C416.164 530.211 429.278 517.12 429.278 500.954L447.506 286.131C447.508 259.892 426.238 238.623 400.011 238.623Z" fill="url(#paint2_linear_194_4)"/>
</g>
<defs>
<linearGradient id="paint0_linear_194_4" x1="400" y1="557.989" x2="400" y2="652.992" gradientUnits="userSpaceOnUse">
<stop stop-color="#825CFF"/>
<stop offset="1" stop-color="#444CF7"/>
</linearGradient>
<linearGradient id="paint1_linear_194_4" x1="400" y1="42.7529" x2="400" y2="757.247" gradientUnits="userSpaceOnUse">
<stop stop-color="#825CFF"/>
<stop offset="1" stop-color="#444CF7"/>
</linearGradient>
<linearGradient id="paint2_linear_194_4" x1="400" y1="238.623" x2="400" y2="530.211" gradientUnits="userSpaceOnUse">
<stop stop-color="#825CFF"/>
<stop offset="1" stop-color="#444CF7"/>
</linearGradient>
<clipPath id="clip0_194_4">
<rect width="800" height="800" fill="white"/>
</clipPath>
</defs>
</svg>
