<svg width="176" height="176" viewBox="0 0 176 176" fill="none" xmlns="http://www.w3.org/2000/svg">
<g id="1564523_photo_pic_picture_gallery_image_icon 1">
<g id="icons">
<path id="pic" d="M176 43.9998C176 27.8665 162.8 14.6665 146.667 14.6665H29.3333C13.2 14.6665 0 27.8665 0 43.9998V132C0 148.133 13.2 161.333 29.3333 161.333H146.667C162.8 161.333 176 148.133 176 132V43.9998ZM44 43.9998C52.0667 43.9998 58.6667 50.5998 58.6667 58.6665C58.6667 66.7332 52.0667 73.3332 44 73.3332C35.9333 73.3332 29.3333 66.7332 29.3333 58.6665C29.3333 50.5998 35.9333 43.9998 44 43.9998ZM161.333 132C161.333 140.066 154.733 146.667 146.667 146.667H32.2667C25.6667 146.667 22.7333 138.6 27.1333 134.2L53.5333 107.8C56.4667 104.867 60.8667 104.867 63.8 107.8L68.2 112.2C71.1333 115.133 75.5333 115.133 78.4667 112.2L126.867 63.7998C129.8 60.8665 134.2 60.8665 137.133 63.7998L159.133 85.7998C160.6 87.2665 161.333 88.7332 161.333 90.9332V132Z" fill="url(#paint0_linear_152_129)"/>
</g>
</g>
<defs>
<linearGradient id="paint0_linear_152_129" x1="88" y1="14.6665" x2="88" y2="161.333" gradientUnits="userSpaceOnUse">
<stop stop-color="#825CFF"/>
<stop offset="1" stop-color="#444CF7"/>
</linearGradient>
</defs>
</svg>
