<svg width="176" height="176" viewBox="0 0 176 176" fill="none" xmlns="http://www.w3.org/2000/svg">
<g id="7727572_office_building_skyscraper_business_architecture_icon 1" clip-path="url(#clip0_152_145)">
<g id="Group">
<path id="Vector" d="M74.8589 13.001H65.1748V22.2822H74.8589V13.001Z" fill="url(#paint0_linear_152_145)"/>
<path id="Vector_2" d="M92.8494 13.001H83.1653V22.2822H92.8494V13.001Z" fill="url(#paint1_linear_152_145)"/>
<path id="Vector_3" d="M110.84 13.001H101.156V22.2822H110.84V13.001Z" fill="url(#paint2_linear_152_145)"/>
<path id="Vector_4" d="M74.8589 29.5786H65.1748V38.8599H74.8589V29.5786Z" fill="url(#paint3_linear_152_145)"/>
<path id="Vector_5" d="M92.8494 29.5786H83.1653V38.8599H92.8494V29.5786Z" fill="url(#paint4_linear_152_145)"/>
<path id="Vector_6" d="M110.84 29.5786H101.156V38.8599H110.84V29.5786Z" fill="url(#paint5_linear_152_145)"/>
<path id="Vector_7" d="M74.8589 46.1592H65.1748V55.4404H74.8589V46.1592Z" fill="url(#paint6_linear_152_145)"/>
<path id="Vector_8" d="M92.8494 46.1592H83.1653V55.4404H92.8494V46.1592Z" fill="url(#paint7_linear_152_145)"/>
<path id="Vector_9" d="M110.84 46.1592H101.156V55.4404H110.84V46.1592Z" fill="url(#paint8_linear_152_145)"/>
<path id="Vector_10" d="M74.8589 62.7373H65.1748V72.0186H74.8589V62.7373Z" fill="url(#paint9_linear_152_145)"/>
<path id="Vector_11" d="M92.8494 62.7373H83.1653V72.0186H92.8494V62.7373Z" fill="url(#paint10_linear_152_145)"/>
<path id="Vector_12" d="M110.84 62.7373H101.156V72.0186H110.84V62.7373Z" fill="url(#paint11_linear_152_145)"/>
<path id="Vector_13" d="M74.8589 79.3149H65.1748V88.5962H74.8589V79.3149Z" fill="url(#paint12_linear_152_145)"/>
<path id="Vector_14" d="M92.8494 79.3149H83.1653V88.5962H92.8494V79.3149Z" fill="url(#paint13_linear_152_145)"/>
<path id="Vector_15" d="M110.84 79.3149H101.156V88.5962H110.84V79.3149Z" fill="url(#paint14_linear_152_145)"/>
<path id="Vector_16" d="M74.8589 95.8931H65.1748V105.174H74.8589V95.8931Z" fill="url(#paint15_linear_152_145)"/>
<path id="Vector_17" d="M92.8494 95.8931H83.1653V105.174H92.8494V95.8931Z" fill="url(#paint16_linear_152_145)"/>
<path id="Vector_18" d="M110.84 95.8931H101.156V105.174H110.84V95.8931Z" fill="url(#paint17_linear_152_145)"/>
<path id="Vector_19" d="M74.8589 112.471H65.1748V121.752H74.8589V112.471Z" fill="url(#paint18_linear_152_145)"/>
<path id="Vector_20" d="M92.8494 112.471H83.1653V121.752H92.8494V112.471Z" fill="url(#paint19_linear_152_145)"/>
<path id="Vector_21" d="M110.84 112.471H101.156V121.752H110.84V112.471Z" fill="url(#paint20_linear_152_145)"/>
<path id="Vector_22" d="M124.685 57.8599V0H51.3426V57.8599H0V176H176V57.8599H124.685ZM22.9077 160.958H13.2277V151.69H22.9077V160.958ZM22.9077 145.2H13.2277V135.932H22.9077V145.2ZM22.9077 129.443H13.2277V120.175H22.9077V129.443ZM22.9077 113.685H13.2277V104.418H22.9077V113.685ZM22.9077 97.9275H13.2277V88.66H22.9077V97.9275ZM22.9077 82.17H13.2277V72.9025H22.9077V82.17ZM40.8928 160.958H31.2128V151.69H40.8928V160.958ZM40.8928 145.2H31.2128V135.932H40.8928V145.2ZM40.8928 129.443H31.2128V120.175H40.8928V129.443ZM40.8928 113.685H31.2128V104.418H40.8928V113.685ZM40.8928 97.9275H31.2128V88.66H40.8928V97.9275ZM40.8928 82.17H31.2128V72.9025H40.8928V82.17ZM119.185 170.5H100.513V141.213H75.5149V170.5H56.8426V5.5H119.185L119.185 170.5ZM144.815 160.958H135.135V151.69H144.815V160.958ZM144.815 145.2H135.135V135.932H144.815V145.2ZM144.815 129.443H135.135V120.175H144.815V129.443ZM144.815 113.685H135.135V104.418H144.815V113.685ZM144.815 97.9275H135.135V88.66H144.815V97.9275ZM144.815 82.17H135.135V72.9025H144.815V82.17ZM162.8 160.958H153.12V151.69H162.8V160.958ZM162.8 145.2H153.12V135.932H162.8V145.2ZM162.8 129.443H153.12V120.175H162.8V129.443ZM162.8 113.685H153.12V104.418H162.8V113.685ZM162.8 97.9275H153.12V88.66H162.8V97.9275ZM162.8 82.17H153.12V72.9025H162.8V82.17Z" fill="url(#paint21_linear_152_145)"/>
</g>
</g>
<defs>
<linearGradient id="paint0_linear_152_145" x1="70.0168" y1="13.001" x2="70.0168" y2="22.2822" gradientUnits="userSpaceOnUse">
<stop stop-color="#825CFF"/>
<stop offset="1" stop-color="#494DF8"/>
</linearGradient>
<linearGradient id="paint1_linear_152_145" x1="88.0073" y1="13.001" x2="88.0073" y2="22.2822" gradientUnits="userSpaceOnUse">
<stop stop-color="#825CFF"/>
<stop offset="1" stop-color="#494DF8"/>
</linearGradient>
<linearGradient id="paint2_linear_152_145" x1="105.998" y1="13.001" x2="105.998" y2="22.2822" gradientUnits="userSpaceOnUse">
<stop stop-color="#825CFF"/>
<stop offset="1" stop-color="#494DF8"/>
</linearGradient>
<linearGradient id="paint3_linear_152_145" x1="70.0168" y1="29.5786" x2="70.0168" y2="38.8599" gradientUnits="userSpaceOnUse">
<stop stop-color="#825CFF"/>
<stop offset="1" stop-color="#494DF8"/>
</linearGradient>
<linearGradient id="paint4_linear_152_145" x1="88.0073" y1="29.5786" x2="88.0073" y2="38.8599" gradientUnits="userSpaceOnUse">
<stop stop-color="#825CFF"/>
<stop offset="1" stop-color="#494DF8"/>
</linearGradient>
<linearGradient id="paint5_linear_152_145" x1="105.998" y1="29.5786" x2="105.998" y2="38.8599" gradientUnits="userSpaceOnUse">
<stop stop-color="#825CFF"/>
<stop offset="1" stop-color="#494DF8"/>
</linearGradient>
<linearGradient id="paint6_linear_152_145" x1="70.0168" y1="46.1592" x2="70.0168" y2="55.4404" gradientUnits="userSpaceOnUse">
<stop stop-color="#825CFF"/>
<stop offset="1" stop-color="#494DF8"/>
</linearGradient>
<linearGradient id="paint7_linear_152_145" x1="88.0073" y1="46.1592" x2="88.0073" y2="55.4404" gradientUnits="userSpaceOnUse">
<stop stop-color="#825CFF"/>
<stop offset="1" stop-color="#494DF8"/>
</linearGradient>
<linearGradient id="paint8_linear_152_145" x1="105.998" y1="46.1592" x2="105.998" y2="55.4404" gradientUnits="userSpaceOnUse">
<stop stop-color="#825CFF"/>
<stop offset="1" stop-color="#494DF8"/>
</linearGradient>
<linearGradient id="paint9_linear_152_145" x1="70.0168" y1="62.7373" x2="70.0168" y2="72.0186" gradientUnits="userSpaceOnUse">
<stop stop-color="#825CFF"/>
<stop offset="1" stop-color="#494DF8"/>
</linearGradient>
<linearGradient id="paint10_linear_152_145" x1="88.0073" y1="62.7373" x2="88.0073" y2="72.0186" gradientUnits="userSpaceOnUse">
<stop stop-color="#825CFF"/>
<stop offset="1" stop-color="#494DF8"/>
</linearGradient>
<linearGradient id="paint11_linear_152_145" x1="105.998" y1="62.7373" x2="105.998" y2="72.0186" gradientUnits="userSpaceOnUse">
<stop stop-color="#825CFF"/>
<stop offset="1" stop-color="#494DF8"/>
</linearGradient>
<linearGradient id="paint12_linear_152_145" x1="70.0168" y1="79.3149" x2="70.0168" y2="88.5962" gradientUnits="userSpaceOnUse">
<stop stop-color="#825CFF"/>
<stop offset="1" stop-color="#494DF8"/>
</linearGradient>
<linearGradient id="paint13_linear_152_145" x1="88.0073" y1="79.3149" x2="88.0073" y2="88.5962" gradientUnits="userSpaceOnUse">
<stop stop-color="#825CFF"/>
<stop offset="1" stop-color="#494DF8"/>
</linearGradient>
<linearGradient id="paint14_linear_152_145" x1="105.998" y1="79.3149" x2="105.998" y2="88.5962" gradientUnits="userSpaceOnUse">
<stop stop-color="#825CFF"/>
<stop offset="1" stop-color="#494DF8"/>
</linearGradient>
<linearGradient id="paint15_linear_152_145" x1="70.0168" y1="95.8931" x2="70.0168" y2="105.174" gradientUnits="userSpaceOnUse">
<stop stop-color="#825CFF"/>
<stop offset="1" stop-color="#494DF8"/>
</linearGradient>
<linearGradient id="paint16_linear_152_145" x1="88.0073" y1="95.8931" x2="88.0073" y2="105.174" gradientUnits="userSpaceOnUse">
<stop stop-color="#825CFF"/>
<stop offset="1" stop-color="#494DF8"/>
</linearGradient>
<linearGradient id="paint17_linear_152_145" x1="105.998" y1="95.8931" x2="105.998" y2="105.174" gradientUnits="userSpaceOnUse">
<stop stop-color="#825CFF"/>
<stop offset="1" stop-color="#494DF8"/>
</linearGradient>
<linearGradient id="paint18_linear_152_145" x1="70.0168" y1="112.471" x2="70.0168" y2="121.752" gradientUnits="userSpaceOnUse">
<stop stop-color="#825CFF"/>
<stop offset="1" stop-color="#494DF8"/>
</linearGradient>
<linearGradient id="paint19_linear_152_145" x1="88.0073" y1="112.471" x2="88.0073" y2="121.752" gradientUnits="userSpaceOnUse">
<stop stop-color="#825CFF"/>
<stop offset="1" stop-color="#494DF8"/>
</linearGradient>
<linearGradient id="paint20_linear_152_145" x1="105.998" y1="112.471" x2="105.998" y2="121.752" gradientUnits="userSpaceOnUse">
<stop stop-color="#825CFF"/>
<stop offset="1" stop-color="#494DF8"/>
</linearGradient>
<linearGradient id="paint21_linear_152_145" x1="88" y1="0" x2="88" y2="176" gradientUnits="userSpaceOnUse">
<stop stop-color="#825CFF"/>
<stop offset="1" stop-color="#494DF8"/>
</linearGradient>
<clipPath id="clip0_152_145">
<rect width="176" height="176" fill="white"/>
</clipPath>
</defs>
</svg>
