<svg width="176" height="176" viewBox="0 0 176 176" fill="none" xmlns="http://www.w3.org/2000/svg">
<g id="2315985_breakfast_dinner_food_lunch_restaurant_icon 1">
<g id="Layer_3">
<g id="Group">
<path id="Vector" d="M87.5416 87.2119C43.659 87.2119 14.3623 102.253 14.3623 102.253C14.3623 142.916 47.3366 175.887 88 175.887C128.671 175.887 161.641 142.916 161.641 102.253C161.641 102.253 131.421 87.2119 87.5416 87.2119ZM87.769 109.729C54.164 109.615 25.1753 103.056 25.1753 103.056C25.1753 103.056 50.259 94.7689 87.538 94.7689C124.817 94.7689 150.359 103.056 150.359 103.056C150.359 103.056 121.374 109.843 87.769 109.729Z" fill="url(#paint0_linear_153_169)"/>
<path id="Vector_2" d="M70.1359 14.8794L72.9409 21.9414L74.1289 24.9371L88.1943 60.4268L89.331 63.3051L91.6886 69.2451C92.5283 75.8488 88.4619 79.6291 88.4619 79.6291L102.153 74.2061L102.168 74.0631C105.483 72.4094 107.096 68.5961 105.827 65.0724L105.871 65.0578L103.03 57.8748L101.886 55.0001L87.8203 19.5104L86.6249 16.5184L85.8183 14.4834C82.2176 5.39377 88.0476 0.11377 88.0476 0.11377L74.3563 5.53677C70.6529 7.01077 68.8416 11.1394 70.1799 14.8648L70.1359 14.8794Z" fill="url(#paint1_linear_153_169)"/>
<path id="Vector_3" d="M108.834 36.1351L110.719 40.8798L111.514 42.8928L120.96 66.7261L121.726 68.6585L123.31 72.6478C123.875 77.0845 121.139 79.6218 121.139 79.6218L130.343 75.9771L130.35 75.8855C132.576 74.7781 133.657 72.2188 132.807 69.8465L132.836 69.8391L130.926 65.0138L130.159 63.0851L120.714 39.2481L119.918 37.2425L119.376 35.8748C116.956 29.7625 120.872 26.2168 120.872 26.2168L111.676 29.8651C109.182 30.8515 107.972 33.6345 108.867 36.1278L108.834 36.1351Z" fill="url(#paint2_linear_153_169)"/>
<path id="Vector_4" d="M52.6973 36.1351L54.582 40.8798L55.374 42.8928L64.823 66.7261L65.5856 68.6585L67.177 72.6478C67.738 77.0845 65.0063 79.6218 65.0063 79.6218L74.2023 75.9771L74.2096 75.8855C76.439 74.7781 77.517 72.2188 76.67 69.8465L76.6993 69.8391L74.7853 65.0138L74.0226 63.0851L64.5736 39.2481L63.7743 37.2425L63.2353 35.8748C60.8116 29.7625 64.7313 26.2168 64.7313 26.2168L55.5353 29.8651C53.0456 30.8515 51.832 33.6345 52.7303 36.1278L52.6973 36.1351Z" fill="url(#paint3_linear_153_169)"/>
</g>
</g>
</g>
<defs>
<linearGradient id="paint0_linear_153_169" x1="88.0018" y1="87.2119" x2="88.0018" y2="175.887" gradientUnits="userSpaceOnUse">
<stop stop-color="#8A5DFF"/>
<stop offset="1" stop-color="#444CF7"/>
</linearGradient>
<linearGradient id="paint1_linear_153_169" x1="88.0001" y1="0.11377" x2="88.0001" y2="79.6291" gradientUnits="userSpaceOnUse">
<stop stop-color="#8A5DFF"/>
<stop offset="1" stop-color="#444CF7"/>
</linearGradient>
<linearGradient id="paint2_linear_153_169" x1="120.835" y1="26.2168" x2="120.835" y2="79.6218" gradientUnits="userSpaceOnUse">
<stop stop-color="#8A5DFF"/>
<stop offset="1" stop-color="#444CF7"/>
</linearGradient>
<linearGradient id="paint3_linear_153_169" x1="64.6967" y1="26.2168" x2="64.6967" y2="79.6218" gradientUnits="userSpaceOnUse">
<stop stop-color="#8A5DFF"/>
<stop offset="1" stop-color="#444CF7"/>
</linearGradient>
</defs>
</svg>
