<svg width="176" height="176" viewBox="0 0 176 176" fill="none" xmlns="http://www.w3.org/2000/svg">
<g id="498942_night_clothes_romantic_clothing_fabric_icon 1">
<path id="Vector" d="M131.56 145.64L128.04 138.16C122.1 121 111.76 98.1198 110.88 79.1998C110.22 61.5998 118.8 62.9198 118.14 45.9798C115.28 43.1198 111.54 38.9398 111.54 35.4198C111.54 31.0198 111.54 17.8198 111.54 17.8198H108.46V36.9598C108.46 36.9598 95.26 37.3998 89.1 46.8598C88.88 47.0798 88.22 47.2998 87.56 47.5198C86.9 47.2998 86.24 47.0798 86.02 46.8598C79.86 37.3998 66.66 36.9598 66.66 36.9598V17.8198H63.58C63.58 17.8198 63.58 31.0198 63.58 35.4198C63.58 38.9398 59.84 43.1198 56.98 45.9798C56.32 62.9198 64.9 61.8198 64.24 79.1998C63.58 99.6598 51.48 124.74 45.76 142.12L44.22 145.42L49.28 147.84L47.96 151.14L54.78 154.22L58.08 146.74C58.52 146.96 58.96 146.96 59.4 147.18L58.52 149.38L62.92 151.14L62.04 153.78L69.08 156.2L71.28 149.6L70.4 157.74L76.78 158.4L77.22 154.88L83.38 155.54L83.6 154.44H85.58V157.3L92.4 157.08L92.18 154V154.88L98.12 154.22L98.34 156.64L104.72 155.98L104.06 149.38C104.28 149.38 104.5 149.38 104.72 149.38L106.7 157.52L113.74 155.1L112.64 151.58L118.14 149.38L117.04 146.74C117.48 146.52 118.14 146.52 118.58 146.3L121.44 152.46L128.04 149.38L127.82 147.4L131.56 145.64Z" fill="url(#paint0_linear_153_183)"/>
</g>
<defs>
<linearGradient id="paint0_linear_153_183" x1="87.89" y1="17.8198" x2="87.89" y2="158.4" gradientUnits="userSpaceOnUse">
<stop stop-color="#8A5DFF"/>
<stop offset="1" stop-color="#444CF7"/>
</linearGradient>
</defs>
</svg>
