<svg width="40" height="40" viewBox="0 0 40 40" fill="none" xmlns="http://www.w3.org/2000/svg">
<g id="Tick4">
<path id="Vector" d="M20 1.6665C16.374 1.6665 12.8294 2.74173 9.81454 4.75623C6.79964 6.77072 4.44981 9.634 3.06221 12.984C1.6746 16.334 1.31154 20.0202 2.01893 23.5765C2.72633 27.1328 4.47241 30.3995 7.03637 32.9635C9.60034 35.5274 12.867 37.2735 16.4233 37.9809C19.9797 38.6883 23.6659 38.3252 27.0159 36.9376C30.3658 35.55 33.2291 33.2002 35.2436 30.1853C37.2581 27.1704 38.3333 23.6258 38.3333 19.9998C38.3333 15.1375 36.4018 10.4744 32.9636 7.03621C29.5255 3.59805 24.8623 1.6665 20 1.6665ZM29.5117 16.1782L17.845 27.8448C17.5325 28.1573 17.1086 28.3328 16.6667 28.3328C16.2247 28.3328 15.8009 28.1573 15.4883 27.8448L10.4883 22.8448C10.1847 22.5305 10.0167 22.1095 10.0205 21.6725C10.0243 21.2355 10.1996 20.8175 10.5086 20.5085C10.8176 20.1995 11.2357 20.0242 11.6727 20.0204C12.1097 20.0166 12.5307 20.1846 12.845 20.4882L16.6667 24.3098L27.155 13.8215C27.4693 13.5179 27.8903 13.3499 28.3273 13.3537C28.7643 13.3575 29.1824 13.5328 29.4914 13.8418C29.8004 14.1508 29.9757 14.5688 29.9795 15.0058C29.9833 15.4428 29.8153 15.8638 29.5117 16.1782Z" fill="url(#paint0_linear_153_196)"/>
</g>
<defs>
<linearGradient id="paint0_linear_153_196" x1="20" y1="1.6665" x2="20" y2="38.3332" gradientUnits="userSpaceOnUse">
<stop stop-color="#825CFF"/>
<stop offset="1" stop-color="#444CF7"/>
</linearGradient>
</defs>
</svg>
